<svg xmlns="http://www.w3.org/2000/svg" width="1080" height="1080" fill="none" xmlns:v="https://vecta.io/nano"><g clip-path="url(#A)"><path d="M540 0L921.838 158.162L1080 540L921.838 921.838L540 1080L158.162 921.838L0 540L158.162 158.162L540 0Z" fill="#000"/><g fill="#fff"><path d="M780.416 780.416A340 340 0 0 1 257.3 728.894C219.941 672.981 200 607.246 200 540s19.941-132.981 57.3-188.894a340 340 0 0 1 523.116-51.522L636.167 443.833a136.01 136.01 0 0 0-148.212-29.481c-24.851 10.294-46.091 27.725-61.035 50.09A136 136 0 0 0 404 540c0 26.898 7.976 53.192 22.92 75.558s36.184 39.796 61.035 50.09a136.01 136.01 0 0 0 148.212-29.481l144.249 144.249zM834.449 370A340 340 0 0 1 880 540c0 59.682-15.71 118.313-45.551 170L540 540l294.449-170z"/></g></g><defs><clipPath id="A"><path fill="#fff" d="M0 0h1080v1080H0z"/></clipPath></defs></svg>
